<svg width="750" height="750" viewBox="0 0 750 750" fill="none" xmlns="http://www.w3.org/2000/svg">
<circle cx="375" cy="375" r="370" fill="#135D66" stroke="black" stroke-width="10"/>
<circle cx="375" cy="375" r="370" fill="#135D66" stroke="black" stroke-width="10"/>
<path d="M560.223 254.037L673.622 250.835L534.55 369.328L560.223 254.037Z" fill="black"/>
<path d="M554.043 257.366L528.329 371.955L458.474 319.877L554.043 257.366Z" fill="black"/>
<path d="M428.969 439.268L454.682 324.679L524.538 376.757L428.969 439.268Z" fill="black"/>
<path d="M375 138L447.746 315.75H302.254L375 138Z" fill="black"/>
<path d="M375 138L447.746 315.75H302.254L375 138Z" fill="black"/>
<path d="M375 647L302.254 323.75H447.746L375 647Z" fill="black"/>
<path d="M319.802 439.624L224.965 375.911L295.42 324.718L319.802 439.624Z" fill="black"/>
<path d="M197.52 255.667L292.356 319.381L221.902 370.573L197.52 255.667Z" fill="black"/>
<path d="M190.849 254.464L214.966 370.119L77.504 249.599L190.849 254.464Z" fill="black"/>
</svg>
